<svg width="430.73753662109374px" height="122px" xmlns="http://www.w3.org/2000/svg" viewBox="34.63123168945313 14 430.73753662109374 122" style="background: rgba(0, 0, 0, 0);" preserveAspectRatio="xMidYMid"><defs>
  <filter id="editing-scratch" x="-100%" y="-100%" width="300%" height="300%">
    <!-- COLOR -->
    <feFlood flood-color="#ddd" flood-opacity="0.75" result="COLOR-blu"></feFlood>
    <feFlood flood-color="#666" flood-opacity="0.4" result="COLOR-red"></feFlood>
    <!-- COLOR END -->

    <!-- Texture -->
    <feTurbulence baseFrequency=".05" type="fractalNoise" numOctaves="3" seed="0" result="Texture_10"></feTurbulence>
    <feColorMatrix type="matrix" values="0 0 0 0 0,
    0 0 0 0 0,
    0 0 0 0 0,
    0 0 0 -2.1 1.1" in="Texture_10" result="Texture_20"></feColorMatrix>

    <feColorMatrix result="Texture_30" type="matrix" values="0 0 0 0 0,
    0 0 0 0 0,
    0 0 0 0 0,
    0 0 0 -1.7 1.8" in="Texture_10"></feColorMatrix>
    <!-- Texture -->

    <!-- FILL -->
    <feOffset dx="-3" dy="4" in="SourceAlpha" result="FILL_10"></feOffset>
    <feDisplacementMap scale="17" in="FILL_10" in2="Texture_10" result="FILL_20"></feDisplacementMap>
    <feComposite operator="in" in="Texture_30" in2="FILL_20" result="FILL_40"></feComposite>
    <feComposite operator="in" in="COLOR-blu" in2="FILL_40" result="FILL_50"></feComposite>
    <!-- FILL END-->

    <!-- OUTLINE -->
    <feMorphology operator="dilate" radius="3" in="SourceGraphic" result="OUTLINE_10"></feMorphology>
    <feComposite operator="out" in="OUTLINE_10" in2="SourceGraphic" result="OUTLINE_20"></feComposite>
    <feDisplacementMap scale="7" in="OUTLINE_20" in2="Texture_10" result="OUTLINE_30"></feDisplacementMap>
    <feComposite operator="arithmetic" k2="-1" k3="1" in="Texture_20" in2="OUTLINE_30" result="OUTLINE_40"></feComposite>
    <!-- OUTLINE END-->

    <!-- BEVEL OUTLINE -->
    <feConvolveMatrix order="8,8" divisor="1" kernelMatrix="1 0 0 0 0 0 0 0 0 1 0 0 0 0 0 0 0 0 1 0 0 0 0 0 0 0 0 1 0 0 0 0 0 0 0 0 1 0 0 0 0 0 0 0 0 1 0 0 0 0 0 0 0 0 1 0 0 0 0 0 0 0 0 1 " in="SourceGraphic" result="BEVEL_10"></feConvolveMatrix>
    <feMorphology operator="dilate" radius="2" in="BEVEL_10" result="BEVEL_20"></feMorphology>
    <feComposite operator="out" in="BEVEL_20" in2="BEVEL_10" result="BEVEL_30"></feComposite>
    <feDisplacementMap scale="7" in="BEVEL_30" in2="Texture_10" result="BEVEL_40"></feDisplacementMap>
    <feComposite operator="arithmetic" k2="-1" k3="1" in="Texture_20" in2="BEVEL_40" result="BEVEL_50"></feComposite>
    <feOffset dx="-7" dy="-7" in="BEVEL_50" result="BEVEL_60"></feOffset>
    <feComposite operator="out" in="BEVEL_60" in2="OUTLINE_10" result="BEVEL_70"></feComposite>
    <!-- BEVEL OUTLINE END -->

    <!-- BEVEL FILL -->
    <feOffset dx="-9" dy="-9" in="BEVEL_10" result="BEVEL-FILL_10"></feOffset>
    <feComposite operator="out" in="BEVEL-FILL_10" in2="OUTLINE_10" result="BEVEL-FILL_20"></feComposite>
    <feDisplacementMap scale="17" in="BEVEL-FILL_20" in2="Texture_10" result="BEVEL-FILL_30"></feDisplacementMap>
    <feComposite operator="in" in="COLOR-red" in2="BEVEL-FILL_30" result="BEVEL-FILL_50"></feComposite> <!-- -->
    <!-- BEVEL FILL END-->

    <feMerge result="merge2">
     <feMergeNode in="BEVEL-FILL_50"></feMergeNode>
     <feMergeNode in="BEVEL_70"></feMergeNode>
     <feMergeNode in="FILL_50"></feMergeNode>
      <feMergeNode in="OUTLINE_40"></feMergeNode>
    </feMerge>
  </filter>
</defs>
<g filter="url(#editing-scratch)"><g transform="translate(99.30999448895454, 102.90499877929688)"><path d="M26.11-42.69L26.11-42.69L26.11-42.69Q41.79-42.69 41.79-31.62L41.79-31.62L41.79-31.62Q41.79-25.54 37.89-21.89L37.89-21.89L37.89-21.89Q34.05-18.24 27.33-18.24L27.33-18.24L27.33-18.24Q24.19-18.24 21.76-20.03L21.76-20.03L21.76-20.03Q20.61-20.80 19.84-21.82L19.84-21.82L19.84-21.82Q24.51-21.82 26.98-24.67L26.98-24.67L26.98-24.67Q29.44-27.52 29.44-33.09L29.44-33.09L29.44-33.09Q29.44-38.66 23.94-38.66L23.94-38.66L22.40-38.66L22.40-38.66Q22.02-38.66 21.70-38.59L21.70-38.59L14.34 0L0.45 0L8.32-41.92L8.32-41.92Q15.17-42.56 19.14-42.62L19.14-42.62L19.14-42.62Q23.10-42.69 26.11-42.69ZM83.65-26.56L83.65-26.56L83.65-26.56Q83.65 0.70 54.08 0.70L54.08 0.70L54.08 0.70Q49.34 0.70 41.54-0.45L41.54-0.45L48.70-38.27L48.70-38.27Q49.22-40.83 49.54-42.30L49.54-42.30L49.54-42.30Q59.26-43.01 63.58-43.01L63.58-43.01L63.58-43.01Q67.90-43.01 71.87-42.11L71.87-42.11L71.87-42.11Q75.84-41.22 78.46-39.23L78.46-39.23L78.46-39.23Q83.65-35.33 83.65-26.56ZM70.46-28.93L70.46-28.93L70.46-28.93Q70.46-38.46 63.62-38.46L63.62-38.46L62.98-38.46L62.98-38.46Q62.66-38.46 62.34-38.40L62.34-38.40L55.74-4.03L55.74-4.03Q56-3.90 56.26-3.90L56.26-3.90L56.77-3.90L56.77-3.90Q59.14-3.90 61.60-5.38L61.60-5.38L61.60-5.38Q64.06-6.85 65.98-9.86L65.98-9.86L65.98-9.86Q70.46-16.83 70.46-28.93ZM116.03-33.92L116.03-33.92L116.03-33.92Q110.85-33.92 107.07-35.65L107.07-35.65L105.02-25.28L117.38-25.28L117.38-25.28Q117.38-21.89 115.68-19.74L115.68-19.74L115.68-19.74Q113.98-17.60 110.91-17.60L110.91-17.60L110.91-17.60Q107.58-17.60 104.51-18.82L104.51-18.82L104.51-18.82Q103.87-19.07 103.81-19.14L103.81-19.14L100.16 0L86.21 0L94.34-42.24L122.88-42.24L122.88-42.24Q122.88-38.34 121.06-36.13L121.06-36.13L121.06-36.13Q119.23-33.92 116.03-33.92ZM139.90 0L132.54 0L144.13-42.24L157.50-42.24L160.45-18.11L172.35-42.24L183.55-42.24L184.70-10.62L184.70-10.62Q184.96-4.35 188.03-2.43L188.03-2.43L188.03-2.43Q187.33-1.15 185.28 0.06L185.28 0.06L185.28 0.06Q183.23 1.28 180.51 1.28L180.51 1.28L180.51 1.28Q177.79 1.28 176.19 0.51L176.19 0.51L176.19 0.51Q174.59-0.26 173.70-1.54L173.70-1.54L173.70-1.54Q172.10-3.84 172.10-8.26L172.10-8.26L172.10-28.03L159.49 0L151.55 0L147.07-28.74L139.90 0ZM193.57-1.92L193.57-1.92L193.57-1.92Q192.06-3.58 191.39-6.21L191.39-6.21L191.39-6.21Q190.72-8.83 190.72-13.12L190.72-13.12L190.72-13.12Q190.72-17.41 192.19-21.31L192.19-21.31L192.19-21.31Q193.66-25.22 196.35-28.03L196.35-28.03L196.35-28.03Q201.86-33.92 210.94-33.92L210.94-33.92L210.94-33.92Q214.21-33.92 216.58-32.83L216.58-32.83L227.52-33.92L222.78-8.96L222.78-8.96Q222.59-8.19 222.59-6.78L222.59-6.78L222.59-6.78Q222.59-5.38 223.46-4.48L223.46-4.48L223.46-4.48Q224.32-3.58 225.60-3.46L225.60-3.46L225.60-3.46Q224.96-1.28 222.62 0L222.62 0L222.62 0Q220.29 1.28 217.66 1.28L217.66 1.28L217.66 1.28Q215.04 1.28 213.28 0.29L213.28 0.29L213.28 0.29Q211.52-0.70 211.01-2.37L211.01-2.37L211.01-2.37Q209.98-0.77 207.81 0.26L207.81 0.26L207.81 0.26Q205.63 1.28 202.72 1.28L202.72 1.28L202.72 1.28Q199.81 1.28 197.44 0.51L197.44 0.51L197.44 0.51Q195.07-0.26 193.57-1.92ZM207.07-27.90L207.07-27.90L207.07-27.90Q206.34-26.75 205.70-24.80L205.70-24.80L205.70-24.80Q205.06-22.85 204-17.63L204-17.63L204-17.63Q202.94-12.42 202.94-8.70L202.94-8.70L202.94-8.70Q202.94-4.99 203.52-3.90L203.52-3.90L203.52-3.90Q204.10-2.82 205.12-2.82L205.12-2.82L205.12-2.82Q207.17-2.82 208.67-4.77L208.67-4.77L208.67-4.77Q210.18-6.72 210.75-10.18L210.75-10.18L214.14-28.93L214.14-28.93Q212.80-30.08 211.23-30.08L211.23-30.08L211.23-30.08Q209.66-30.08 208.74-29.57L208.74-29.57L208.74-29.57Q207.81-29.06 207.07-27.90ZM235.26-26.75L235.26-26.75L235.26-26.75Q237.44-29.82 240.74-31.87L240.74-31.87L240.74-31.87Q244.03-33.92 248.06-33.92L248.06-33.92L248.06-33.92Q252.10-33.92 254.02-32.64L254.02-32.64L266.56-33.92L262.21-9.34L262.21-9.34Q259.97 3.20 255.23 8.13L255.23 8.13L255.23 8.13Q250.69 12.80 241.86 12.80L241.86 12.80L241.86 12.80Q235.14 12.80 231.30 10.69L231.30 10.69L231.30 10.69Q227.46 8.58 227.46 5.06L227.46 5.06L227.46 5.06Q227.46 2.43 229.44 0.93L229.44 0.93L229.44 0.93Q231.42-0.58 234.50-0.58L234.50-0.58L234.50-0.58Q237.18-0.58 239.23 0.64L239.23 0.64L239.23 0.64Q240.45 1.28 241.02 2.18L241.02 2.18L241.02 2.18Q239.55 3.46 239.55 5.57L239.55 5.57L239.55 5.57Q239.55 8.32 242.11 8.32L242.11 8.32L242.11 8.32Q246.40 8.32 248.83-1.79L248.83-1.79L248.83-1.79Q249.54-4.54 250.11-7.30L250.11-7.30L250.11-7.30Q247.23-3.78 240.70-3.78L240.70-3.78L240.70-3.78Q236.16-3.78 233.54-5.95L233.54-5.95L233.54-5.95Q230.91-8.13 230.91-13.25L230.91-13.25L230.91-13.25Q230.91-16.45 232-20.06L232-20.06L232-20.06Q233.09-23.68 235.26-26.75ZM243.58-13.06L243.58-13.06L243.58-13.06Q243.58-8.70 245.82-8.70L245.82-8.70L245.82-8.70Q247.36-8.70 248.83-10.37L248.83-10.37L248.83-10.37Q249.98-11.71 250.43-13.70L250.43-13.70L253.70-30.14L253.70-30.14Q253.38-30.21 253.06-30.34L253.06-30.34L253.06-30.34Q252.42-30.59 251.58-30.59L251.58-30.59L251.58-30.59Q247.68-30.59 245.38-24.19L245.38-24.19L245.38-24.19Q243.58-19.20 243.58-13.06ZM294.98-10.82L294.98-10.82L294.98-10.82Q296.58-9.73 296.58-7.33L296.58-7.33L296.58-7.33Q296.58-4.93 295.36-3.39L295.36-3.39L295.36-3.39Q294.14-1.86 292.16-0.83L292.16-0.83L292.16-0.83Q288.06 1.28 283.65 1.28L283.65 1.28L283.65 1.28Q279.23 1.28 276.64 0.32L276.64 0.32L276.64 0.32Q274.05-0.64 272.32-2.43L272.32-2.43L272.32-2.43Q268.93-5.82 268.93-12.03L268.93-12.03L268.93-12.03Q268.93-21.70 274.18-27.58L274.18-27.58L274.18-27.58Q279.81-33.92 289.60-33.92L289.60-33.92L289.60-33.92Q295.68-33.92 298.69-31.36L298.69-31.36L298.69-31.36Q300.93-29.44 300.93-26.30L300.93-26.30L300.93-26.30Q300.93-15.04 281.47-15.04L281.47-15.04L281.47-15.04Q281.22-13.38 281.22-11.97L281.22-11.97L281.22-11.97Q281.22-9.02 282.53-7.90L282.53-7.90L282.53-7.90Q283.84-6.78 286.27-6.78L286.27-6.78L286.27-6.78Q288.70-6.78 291.30-7.90L291.30-7.90L291.30-7.90Q293.89-9.02 294.98-10.82ZM281.92-17.79L281.92-17.79L281.92-17.79Q286.46-17.79 289.09-20.61L289.09-20.61L289.09-20.61Q291.71-23.30 291.71-27.58L291.71-27.58L291.71-27.58Q291.71-29.06 291.17-29.86L291.17-29.86L291.17-29.86Q290.62-30.66 289.54-30.66L289.54-30.66L289.54-30.66Q288.45-30.66 287.52-30.24L287.52-30.24L287.52-30.24Q286.59-29.82 285.63-28.42L285.63-28.42L285.63-28.42Q283.26-25.22 281.92-17.79Z" fill="#000"></path></g></g><style>text {
  font-size: 64px;
  font-family: Arial Black;
  dominant-baseline: central;
  text-anchor: middle;
}</style></svg>